# xmcd
# Copyright (C) 1995-1998 Ti Kan
#
# Track frame offsets:
#       150
#       17740
#       35988
#       60447
#       82148
#       101419
#       123339
#       141680
#       159729
#       179576
#       194966
#       213779
#       241365
#
# Disc length: 3488 seconds
#
# Revision: 0
# Processed by: cddbd v1.5.2PL0 Copyright (c) Steve Scherf et al.
# Submitted via: CD-Import v1.0
#
DISCID=c70d9e0d
DTITLE=Cinematics - A Strange Education
DYEAR=2007
DGENRE=
TTITLE0=Race To The City
TTITLE1=Break
TTITLE2=A Strange Education
TTITLE3=Human
TTITLE4=Chase
TTITLE5=Rise and Fall
TTITLE6=Sunday Sun
TTITLE7=Keep Forgetting
TTITLE8=Ready Now
TTITLE9=Maybe Someday
TTITLE10=Alright
TTITLE11=Asleep At The Wheel
TTITLE12=Home (Hidden Track)
EXTD=
EXTT0=
EXTT1=
EXTT2=
EXTT3=
EXTT4=
EXTT5=
EXTT6=
EXTT7=
EXTT8=
EXTT9=
EXTT10=
EXTT11=
EXTT12=
PLAYORDER=
